<svg width="24" height="24" viewBox="0 0 24 24" fill="none" xmlns="http://www.w3.org/2000/svg">
<g filter="url(#filter0_d_233_113)">
<path d="M19.294 10.377L13.554 2.481C13.3812 2.25062 13.1582 2.06255 12.902 1.931C12.6913 1.82081 12.4586 1.75898 12.221 1.75H11.92C11.682 1.76 11.45 1.822 11.239 1.93C10.979 2.06 10.752 2.249 10.577 2.481L4.837 10.377C4.49091 10.8474 4.30417 11.416 4.304 12C4.29933 12.06 4.29933 12.12 4.304 12.18C4.29454 12.2296 4.29454 12.2804 4.304 12.33C4.29296 12.376 4.29296 12.424 4.304 12.47C4.361 12.884 4.52 13.276 4.765 13.613L10.516 21.509C10.686 21.744 10.91 21.936 11.168 22.069C11.382 22.169 11.613 22.231 11.848 22.25H12.149C12.4114 22.2296 12.6663 22.1529 12.8964 22.025C13.1264 21.8971 13.3262 21.7211 13.482 21.509L19.223 13.623C19.472 13.276 19.633 12.873 19.694 12.451C19.6999 12.428 19.6999 12.404 19.694 12.381C19.704 12.321 19.704 12.261 19.694 12.201C19.7037 12.1343 19.7037 12.0667 19.694 12C19.7323 11.4306 19.5925 10.8634 19.294 10.377ZM18.082 12.741L17.381 13.743L12.821 15.627V20.006L12.331 20.676C12.3068 20.7188 12.2676 20.7512 12.221 20.767C12.1729 20.7917 12.1196 20.8046 12.0655 20.8046C12.0114 20.8046 11.9581 20.7917 11.91 20.767C11.8651 20.7488 11.8267 20.7174 11.8 20.677L11.319 20.016V15.627L6.749 13.743L6.049 12.741C5.89012 12.5268 5.80519 12.2667 5.807 12C5.79191 11.9006 5.79191 11.7994 5.807 11.7L11.277 13.964V4.024L11.749 3.374C11.7793 3.33029 11.8207 3.29543 11.869 3.273C11.9218 3.26222 11.9762 3.26222 12.029 3.273C12.0785 3.26354 12.1294 3.26354 12.179 3.273C12.2262 3.29256 12.265 3.32791 12.289 3.373L12.781 4.044V13.964L18.241 11.699C18.2768 11.7952 18.2938 11.8974 18.291 12C18.301 12.263 18.228 12.523 18.081 12.741" fill="#EEEEEE"/>
</g>
<defs>
<filter id="filter0_d_233_113" x="0.295715" y="-1.25" width="23.4058" height="28.5" filterUnits="userSpaceOnUse" color-interpolation-filters="sRGB">
<feFlood flood-opacity="0" result="BackgroundImageFix"/>
<feColorMatrix in="SourceAlpha" type="matrix" values="0 0 0 0 0 0 0 0 0 0 0 0 0 0 0 0 0 0 127 0" result="hardAlpha"/>
<feOffset dy="1"/>
<feGaussianBlur stdDeviation="2"/>
<feComposite in2="hardAlpha" operator="out"/>
<feColorMatrix type="matrix" values="0 0 0 0 0 0 0 0 0 0 0 0 0 0 0 0 0 0 0.25 0"/>
<feBlend mode="normal" in2="BackgroundImageFix" result="effect1_dropShadow_233_113"/>
<feBlend mode="normal" in="SourceGraphic" in2="effect1_dropShadow_233_113" result="shape"/>
</filter>
</defs>
</svg>
