<svg width="24" height="24" viewBox="0 0 24 24" fill="none" xmlns="http://www.w3.org/2000/svg">
<g filter="url(#filter0_i_119_556)">
<path d="M19.2941 10.377L13.5541 2.481C13.3812 2.25062 13.1583 2.06255 12.9021 1.931C12.6913 1.82081 12.4587 1.75898 12.2211 1.75H11.9201C11.6821 1.76 11.4501 1.822 11.2391 1.93C10.9791 2.06 10.7521 2.249 10.5771 2.481L4.83706 10.377C4.49098 10.8474 4.30423 11.416 4.30406 12C4.29939 12.06 4.29939 12.12 4.30406 12.18C4.2946 12.2296 4.2946 12.2804 4.30406 12.33C4.29302 12.376 4.29302 12.424 4.30406 12.47C4.36106 12.884 4.52006 13.276 4.76506 13.613L10.5161 21.509C10.6861 21.744 10.9101 21.936 11.1681 22.069C11.3821 22.169 11.6131 22.231 11.8481 22.25H12.1491C12.4115 22.2296 12.6664 22.1529 12.8964 22.025C13.1265 21.8971 13.3262 21.7211 13.4821 21.509L19.2231 13.623C19.4721 13.276 19.6331 12.873 19.6941 12.451C19.7 12.428 19.7 12.404 19.6941 12.381C19.7041 12.321 19.7041 12.261 19.6941 12.201C19.7037 12.1343 19.7037 12.0667 19.6941 12C19.7324 11.4306 19.5926 10.8634 19.2941 10.377ZM18.0821 12.741L17.3811 13.743L12.8211 15.627V20.006L12.3311 20.676C12.3068 20.7188 12.2677 20.7512 12.2211 20.767C12.173 20.7917 12.1196 20.8046 12.0656 20.8046C12.0115 20.8046 11.9582 20.7917 11.9101 20.767C11.8651 20.7488 11.8268 20.7174 11.8001 20.677L11.3191 20.016V15.627L6.74906 13.743L6.04906 12.741C5.89019 12.5268 5.80525 12.2667 5.80706 12C5.79197 11.9006 5.79197 11.7994 5.80706 11.7L11.2771 13.964V4.024L11.7491 3.374C11.7794 3.33029 11.8208 3.29543 11.8691 3.273C11.9218 3.26222 11.9763 3.26222 12.0291 3.273C12.0786 3.26354 12.1295 3.26354 12.1791 3.273C12.2262 3.29256 12.2651 3.32791 12.2891 3.373L12.7811 4.044V13.964L18.2411 11.699C18.2769 11.7952 18.2939 11.8974 18.2911 12C18.3011 12.263 18.2281 12.523 18.0811 12.741" fill="url(#paint0_linear_119_556)"/>
</g>
<defs>
<filter id="filter0_i_119_556" x="4.29578" y="0.75" width="15.4058" height="21.5" filterUnits="userSpaceOnUse" color-interpolation-filters="sRGB">
<feFlood flood-opacity="0" result="BackgroundImageFix"/>
<feBlend mode="normal" in="SourceGraphic" in2="BackgroundImageFix" result="shape"/>
<feColorMatrix in="SourceAlpha" type="matrix" values="0 0 0 0 0 0 0 0 0 0 0 0 0 0 0 0 0 0 127 0" result="hardAlpha"/>
<feOffset dy="-2"/>
<feGaussianBlur stdDeviation="0.5"/>
<feComposite in2="hardAlpha" operator="arithmetic" k2="-1" k3="1"/>
<feColorMatrix type="matrix" values="0 0 0 0 0 0 0 0 0 1 0 0 0 0 0.0196078 0 0 0 0.25 0"/>
<feBlend mode="normal" in2="shape" result="effect1_innerShadow_119_556"/>
</filter>
<linearGradient id="paint0_linear_119_556" x1="11.9987" y1="1.75" x2="11.9987" y2="22.25" gradientUnits="userSpaceOnUse">
<stop stop-color="#168318"/>
<stop offset="1" stop-color="#1FB622"/>
</linearGradient>
</defs>
</svg>
