<svg width="16" height="16" viewBox="0 0 16 16" fill="none" xmlns="http://www.w3.org/2000/svg">
<path d="M13.58 14.1668C13.58 14.2994 13.5274 14.4266 13.4336 14.5204C13.3398 14.6142 13.2127 14.6668 13.08 14.6668H2.92004C2.78744 14.6668 2.66026 14.6142 2.56649 14.5204C2.47272 14.4266 2.42004 14.2994 2.42004 14.1668C2.42004 11.4335 5.42004 9.3135 8.00004 9.3135C10.58 9.3135 13.58 11.4335 13.58 14.1668ZM11.4 4.74016C11.3987 5.41233 11.1982 6.06903 10.8238 6.62728C10.4494 7.18553 9.91794 7.62028 9.29655 7.8766C8.67517 8.13291 7.99175 8.19929 7.33266 8.06735C6.67356 7.93541 6.06837 7.61107 5.59353 7.1353C5.1187 6.65954 4.79554 6.05371 4.66489 5.39435C4.53424 4.735 4.60196 4.05172 4.8595 3.43084C5.11703 2.80996 5.55282 2.27934 6.1118 1.90604C6.67078 1.53274 7.32787 1.3335 8.00004 1.3335C8.90239 1.33526 9.76718 1.69496 10.4046 2.33364C11.042 2.97232 11.4 3.83781 11.4 4.74016Z" fill="#EEEEEE"/>
</svg>
