<svg width="48" height="48" viewBox="0 0 48 48" fill="none" xmlns="http://www.w3.org/2000/svg">
<path d="M40.74 42.5C40.74 42.8978 40.582 43.2794 40.3007 43.5607C40.0194 43.842 39.6378 44 39.24 44H8.76001C8.36219 44 7.98065 43.842 7.69935 43.5607C7.41804 43.2794 7.26001 42.8978 7.26001 42.5C7.26001 34.3 16.26 27.94 24 27.94C31.74 27.94 40.74 34.3 40.74 42.5ZM34.2 14.22C34.1961 16.2365 33.5945 18.2066 32.4713 19.8814C31.3481 21.5561 29.7537 22.8604 27.8895 23.6293C26.0254 24.3982 23.9751 24.5974 21.9979 24.2016C20.0206 23.8057 18.205 22.8327 16.7805 21.4054C15.356 19.9781 14.3865 18.1606 13.9946 16.1826C13.6026 14.2045 13.8058 12.1547 14.5784 10.292C15.351 8.42938 16.6583 6.83754 18.3353 5.71763C20.0122 4.59772 21.9835 4 24 4C26.7071 4.0053 29.3014 5.08438 31.2137 7.00043C33.126 8.91648 34.2 11.5129 34.2 14.22Z" fill="#EEEEEE"/>
</svg>
