<svg width="300" height="480" viewBox="0 0 300 480" fill="none" xmlns="http://www.w3.org/2000/svg">
<mask id="path-1-inside-1_531_485" fill="white">
<path d="M300 267.027C300 278.189 294.184 288.544 284.652 294.353L275.348 300.022C265.816 305.831 260 316.186 260 327.348V448C260 465.673 245.673 480 228 480H32C14.3269 480 0 465.673 0 448V32C0 14.3269 14.3269 0 32 0H268C285.673 0 300 14.3269 300 32V267.027Z"/>
</mask>
<path d="M275.348 300.022L276.389 301.73L275.348 300.022ZM284.652 294.353L283.611 292.645L284.652 294.353ZM284.652 294.353L283.611 292.645L274.307 298.314L275.348 300.022L276.389 301.73L285.693 296.061L284.652 294.353ZM260 327.348H258V448H260H262V327.348H260ZM228 480V478H32V480V482H228V480ZM0 448H2V32H0H-2V448H0ZM32 0V2H268V0V-2H32V0ZM300 32H298V267.027H300H302V32H300ZM268 0V2C284.569 2 298 15.4315 298 32H300H302C302 13.2223 286.778 -2 268 -2V0ZM0 32H2C2 15.4315 15.4315 2 32 2V0V-2C13.2223 -2 -2 13.2223 -2 32H0ZM32 480V478C15.4315 478 2 464.569 2 448H0H-2C-2 466.778 13.2223 482 32 482V480ZM260 448H258C258 464.569 244.569 478 228 478V480V482C246.778 482 262 466.778 262 448H260ZM275.348 300.022L274.307 298.314C264.18 304.486 258 315.489 258 327.348H260H262C262 316.884 267.453 307.176 276.389 301.73L275.348 300.022ZM284.652 294.353L285.693 296.061C295.82 289.889 302 278.886 302 267.027H300H298C298 277.491 292.547 287.199 283.611 292.645L284.652 294.353Z" fill="#AAAAAA" fill-opacity="0.5" mask="url(#path-1-inside-1_531_485)"/>
</svg>
