<svg width="300" height="480" viewBox="0 0 300 480" fill="none" xmlns="http://www.w3.org/2000/svg">
<mask id="path-1-inside-1_531_398" fill="white">
<path d="M300 257.497C300 268.403 294.445 278.559 285.262 284.442L274.738 291.183C265.555 297.066 260 307.222 260 318.128V448C260 465.673 245.673 480 228 480H32C14.3269 480 0 465.673 0 448V32C0 14.3269 14.3269 0 32 0H268C285.673 0 300 14.3269 300 32V257.497Z"/>
</mask>
<path d="M274.738 291.183L273.659 289.499L274.738 291.183ZM285.262 284.442L286.341 286.126L285.262 284.442ZM285.262 284.442L284.183 282.758L273.659 289.499L274.738 291.183L275.817 292.867L286.341 286.126L285.262 284.442ZM260 318.128H258V448H260H262V318.128H260ZM228 480V478H32V480V482H228V480ZM0 448H2V32H0H-2V448H0ZM32 0V2H268V0V-2H32V0ZM300 32H298V257.497H300H302V32H300ZM268 0V2C284.569 2 298 15.4315 298 32H300H302C302 13.2223 286.778 -2 268 -2V0ZM0 32H2C2 15.4315 15.4315 2 32 2V0V-2C13.2223 -2 -2 13.2223 -2 32H0ZM32 480V478C15.4315 478 2 464.569 2 448H0H-2C-2 466.778 13.2223 482 32 482V480ZM260 448H258C258 464.569 244.569 478 228 478V480V482C246.778 482 262 466.778 262 448H260ZM274.738 291.183L273.659 289.499C263.902 295.75 258 306.54 258 318.128H260H262C262 307.904 267.208 298.383 275.817 292.867L274.738 291.183ZM285.262 284.442L286.341 286.126C296.098 279.875 302 269.085 302 257.497H300H298C298 267.721 292.792 277.242 284.183 282.758L285.262 284.442Z" fill="#AAAAAA" fill-opacity="0.5" mask="url(#path-1-inside-1_531_398)"/>
</svg>
